<?xml version="1.0" encoding="UTF-8" standalone="no"?>
<!-- Created with Inkscape (http://www.inkscape.org/) -->
<svg xmlns:dc="http://purl.org/dc/elements/1.1/" xmlns:cc="http://creativecommons.org/ns#" xmlns:rdf="http://www.w3.org/1999/02/22-rdf-syntax-ns#" xmlns:svg="http://www.w3.org/2000/svg" xmlns="http://www.w3.org/2000/svg" xmlns:sodipodi="http://sodipodi.sourceforge.net/DTD/sodipodi-0.dtd" xmlns:inkscape="http://www.inkscape.org/namespaces/inkscape" width="496.71225" height="483.16461" id="svg2" sodipodi:version="0.32" inkscape:version="0.48.1 " sodipodi:docname="chatterbox.svg" inkscape:output_extension="org.inkscape.output.svg.inkscape" version="1.1" inkscape:export-filename="C:\Documents and Settings\admin\Pulpit\Rysunek.png" inkscape:export-xdpi="150" inkscape:export-ydpi="150">
  <defs id="defs4">
    <inkscape:perspective sodipodi:type="inkscape:persp3d" inkscape:vp_x="0 : 526.18109 : 1" inkscape:vp_y="6.1230318e-014 : 1000 : 0" inkscape:vp_z="744.09448 : 526.18109 : 1" inkscape:persp3d-origin="372.04724 : 350.78739 : 1" id="perspective10"/>
    <inkscape:perspective id="perspective2390" inkscape:persp3d-origin="372.04724 : 350.78739 : 1" inkscape:vp_z="744.09448 : 526.18109 : 1" inkscape:vp_y="0 : 1000 : 0" inkscape:vp_x="0 : 526.18109 : 1" sodipodi:type="inkscape:persp3d"/>
    <inkscape:perspective id="perspective3291" inkscape:persp3d-origin="372.04724 : 350.78739 : 1" inkscape:vp_z="744.09448 : 526.18109 : 1" inkscape:vp_y="0 : 1000 : 0" inkscape:vp_x="0 : 526.18109 : 1" sodipodi:type="inkscape:persp3d"/>
    <inkscape:perspective id="perspective3322" inkscape:persp3d-origin="372.04724 : 350.78739 : 1" inkscape:vp_z="744.09448 : 526.18109 : 1" inkscape:vp_y="0 : 1000 : 0" inkscape:vp_x="0 : 526.18109 : 1" sodipodi:type="inkscape:persp3d"/>
  </defs>
  <sodipodi:namedview id="base" pagecolor="#ffffff" bordercolor="#666666" borderopacity="1.0" gridtolerance="10000" guidetolerance="10" objecttolerance="10" inkscape:pageopacity="0.0" inkscape:pageshadow="2" inkscape:zoom="1.2021335" inkscape:cx="226.27564" inkscape:cy="290.19072" inkscape:document-units="px" inkscape:current-layer="layer1" showgrid="false" inkscape:window-width="1360" inkscape:window-height="708" inkscape:window-x="-4" inkscape:window-y="-4" inkscape:window-maximized="1" fit-margin-top="0" fit-margin-left="0" fit-margin-right="0" fit-margin-bottom="0"/>
  <metadata id="metadata7">
    <rdf:RDF>
      <cc:Work rdf:about="">
        <dc:format>image/svg+xml</dc:format>
        <dc:type rdf:resource="http://purl.org/dc/dcmitype/StillImage"/>
        <dc:title/>
      </cc:Work>
    </rdf:RDF>
  </metadata>
  <g inkscape:groupmode="layer" id="layer2" inkscape:label="Warstwa" transform="translate(-115.67439,-474.17913)">
    <path style="fill:#a2d5cc;fill-opacity:1;stroke:none" d="m 128.31692,638.81561 0,213.25449 231.48812,94.33934 0,-250.51457 z" id="path3009" inkscape:connector-curvature="0"/>
    <path style="fill:#789f9a;fill-opacity:1;stroke:none" d="m 359.80504,696.68765 0,251.30731 233.86641,-95.92486 0,-217.21833 z" id="path3020" inkscape:connector-curvature="0"/>
    <path style="fill:none;stroke:#000000;stroke-width:16.91274834;stroke-linecap:butt;stroke-linejoin:miter;stroke-miterlimit:4;stroke-opacity:1;stroke-dasharray:none" d="m 120.75802,635.73167 239.27845,-35.71776 241.69229,35.71965" id="path3782" inkscape:connector-curvature="0" sodipodi:nodetypes="ccc"/>
    <path style="fill:#d7edeb;fill-opacity:1;stroke:none" d="m 139.1095,637.23773 219.72931,60.61497 220.4181,-55.7933 -49.59407,-14.46497 -351.98017,2.75525 z" id="path3059" inkscape:connector-curvature="0"/>
  </g>
  <g inkscape:label="Layer 1" inkscape:groupmode="layer" id="layer1" transform="translate(-115.67439,-474.17913)">
    <path sodipodi:type="arc" style="fill:#ffffff;fill-opacity:1;fill-rule:evenodd;stroke:#000000;stroke-width:5.34946918;stroke-miterlimit:4;stroke-opacity:1;stroke-dasharray:none" id="path2398" sodipodi:cx="375.35715" sodipodi:cy="146.6479" sodipodi:rx="96.071426" sodipodi:ry="35" d="m 471.42857,146.6479 c 0,19.32997 -43.01264,35 -96.07142,35 -53.05879,0 -96.07143,-15.67003 -96.07143,-35 0,-19.32996 43.01264,-35 96.07143,-35 53.05878,0 96.07142,15.67004 96.07142,35 z" transform="matrix(2.5153968,0,0,2.4345225,-580.14725,208.89226)"/>
    <path style="fill:none;stroke:#000000;stroke-width:16.91274834;stroke-linecap:butt;stroke-linejoin:miter;stroke-miterlimit:4;stroke-opacity:1;stroke-dasharray:none" d="m 360.03647,702.40498 -1.9e-4,18.0677" id="path3770" inkscape:connector-curvature="0" sodipodi:nodetypes="cc"/>
    <path style="fill:none;stroke:#000000;stroke-width:16.91274834;stroke-linecap:butt;stroke-linejoin:miter;stroke-miterlimit:4;stroke-opacity:1;stroke-dasharray:none" d="m 360.03628,940.06461 0,-40.30485" id="path3772" inkscape:connector-curvature="0"/>
    <path style="fill:none;stroke:#000000;stroke-width:16.91274834;stroke-linecap:butt;stroke-linejoin:miter;stroke-miterlimit:4;stroke-opacity:1;stroke-dasharray:none" d="m 310.5845,880.95687 c 0,0 -1.81466,12.40008 10.58542,12.40008 l 77.72733,0 c 0,0 13.45861,0.60484 12.85372,-14.0635" id="path3776" inkscape:connector-curvature="0" sodipodi:nodetypes="cscc"/>
    <path style="fill:none;stroke:#000000;stroke-width:11.01295185;stroke-linecap:butt;stroke-linejoin:miter;stroke-miterlimit:4;stroke-opacity:1;stroke-dasharray:none" d="m 326.41896,729.01027 c 0,0 25.25188,-9.82343 61.9134,0" id="path3778" inkscape:connector-curvature="0"/>
    <path id="path3788" style="fill:#000000;stroke:#000000;stroke-width:3.93319726px;stroke-linecap:butt;stroke-linejoin:miter;stroke-opacity:1" d="m 360.03647,746.41372 c 0,0 62.74897,-5.99281 144.2469,15.8445 l 7.16078,-4.13427 c 0,0 -3.92262,-25.42686 8.06817,-4.6582 l 20.71925,35.88677 c 0,0 24.05154,48.12868 -8.99168,5.19134 0,0 -91.02759,64.75262 -171.20342,64.75262 m 0,-112.88205 c 0,0 -57.80215,-5.07776 -139.30008,16.75955 l -7.16077,-4.13426 c 0,0 3.92261,-25.42686 -8.06817,-4.6582 l -20.71926,35.88676 c 0,0 -24.05154,48.12869 8.99168,5.19135 0,0 86.08078,63.83823 166.2566,63.83823" inkscape:connector-curvature="0"/>
    <path style="fill:none;stroke:#000000;stroke-width:16.51942635;stroke-linecap:butt;stroke-linejoin:miter;stroke-miterlimit:4;stroke-opacity:1;stroke-dasharray:none" d="m 127.93595,638.47499 0,212.64044 233.48894,97.28811 233.49134,-97.28756 0,-212.64283 -233.49134,58.37254 z" id="path3000" inkscape:connector-curvature="0" sodipodi:nodetypes="ccccccc"/>
    <path style="fill:#ffffff;stroke:none" d="m 233.36475,630.17359 c -1.25681,1.74748 -2.51363,5.35646 -3.77044,8.87254 l -43.84827,-13.62247 0.0354,-10.5292 z" id="path3039" inkscape:connector-curvature="0" sodipodi:nodetypes="ccccc"/>
    <path style="fill:#800000;stroke:none" d="m 335.71598,797.84007 c -0.89308,-3.31385 12.85695,-2.22528 16.22866,0 4.59501,2.48904 3.7331,1.75576 9.88,2.98084 0,9.2529 0.13139,0.88721 0.13139,9.32669 -6.32969,-0.18273 -26.36423,-0.34727 -26.24005,-12.30753 z" id="path3105" inkscape:connector-curvature="0" sodipodi:nodetypes="ccccc"/>
    <path sodipodi:nodetypes="ccccc" inkscape:connector-curvature="0" id="path3017" d="m 385.71444,797.84007 c 0.89308,-3.31385 -12.85696,-2.22528 -16.22866,0 -4.59502,2.48904 -3.73311,1.75576 -9.88,2.98084 0,9.2529 -0.13139,0.88721 -0.13139,9.32669 6.32969,-0.18273 26.36423,-0.34727 26.24005,-12.30753 z" style="fill:#800000;stroke:none"/>
    <path style="fill:#ffffff;stroke:#000000;stroke-width:0.98329931px;stroke-linecap:butt;stroke-linejoin:miter;stroke-opacity:1" d="m 444.39329,763.14757 c 1.80388,1.7305 3.28137,14.98886 3.81373,13.2603 2.74416,-1.08095 5.80006,-0.14883 8.20898,-3.45443 0,0 5.16932,0.81913 6.11633,-0.48286 1.8744,-3.81539 0.54595,-6.37981 -2.25338,-8.36973 -1.10486,-1.27841 -16.26941,-3.13604 -15.88566,-0.95328 z" id="path3044" inkscape:connector-curvature="0" sodipodi:nodetypes="cccccc"/>
    <path style="fill:#ffffff;stroke:#000000;stroke-width:0.98329931px;stroke-linecap:butt;stroke-linejoin:miter;stroke-opacity:1" d="m 293.93732,760.92562 c 1.59898,-0.73211 -0.55486,22.06766 -1.56952,20.0114 -6.97076,-0.10993 -13.99899,-0.17596 -17.9187,-2.61587 -0.88223,1.21305 -1.68346,-10.00968 -0.13079,-16.61077 -0.49499,-1.51315 14.16441,-1.49209 19.61901,-0.78476 z" id="path3046" inkscape:connector-curvature="0" sodipodi:nodetypes="ccccc"/>
    <path style="fill:#ffffff;stroke:#000000;stroke-width:0.98329931px;stroke-linecap:butt;stroke-linejoin:miter;stroke-opacity:1" d="m 268.43261,762.36435 c -2.83645,0.17288 -6.66464,0.16852 -9.15555,2.61586 -1.88008,1.48652 -2.64138,4.3715 -3.13904,7.58603 1.00904,1.95229 1.54807,4.12151 6.93205,4.0546 2.39724,0.28242 4.57614,0.23734 6.27809,-0.52318 0.90346,1.21564 2.00205,-14.01364 -0.91555,-13.73331 z" id="path3048" inkscape:connector-curvature="0" sodipodi:nodetypes="cccccc"/>
    <path style="fill:#ffffff;stroke:#000000;stroke-width:0.98329931px;stroke-linecap:butt;stroke-linejoin:miter;stroke-opacity:1" d="m 315.07903,814.80523 c -2.13124,9.81429 0.76807,21.19291 2.4139,24.44074 -0.47045,1.63659 14.15308,2.08839 17.80251,1.20695 5.70271,2.24454 8.43175,2.19388 16.29382,3.01737 7.1187,0.35867 18.95741,-1.11257 23.83726,-1.86483 10.07678,-1.43478 23.26986,0.65937 28.06159,-1.81043 6.696,-3.00729 19.17518,-3.954 26.5529,-6.88555 4.02317,-0.47042 8.04633,-0.41215 12.0695,-2.71564 1.33391,0.22005 0.45956,-16.44543 -4.22433,-18.70773 -4.41507,-1.05496 -16.79727,1.59982 -18.40598,3.01738 -6.42947,0.008 -8.6707,0.71245 -12.79453,1.2656 -6.24998,-1.80787 -5.90803,1.06954 -14.71799,1.51294 -2.02804,-0.97682 -21.79945,-2.07542 -26.25116,-0.60348 -0.8593,1.25916 -1.58551,3.09075 -4.7734,3.55795 -2.97163,0.37528 -8.05232,-4.26026 -15.69035,-3.92259 -12.3619,0.7771 -30.03072,-2.65513 -30.17374,-1.50868 z" id="path3050" inkscape:connector-curvature="0" sodipodi:nodetypes="cccccccccccccccc"/>
    <path style="fill:#ffffff;stroke:#000000;stroke-width:0.98329931px;stroke-linecap:butt;stroke-linejoin:miter;stroke-opacity:1" d="m 310.25123,815.4087 c 0.97588,-0.48214 -1.25923,11.51575 1.47913,21.90657 0.21831,0.76524 -6.21863,-1.02572 -12.14797,-2.68504 -1.25263,-0.25262 -7.37594,-0.56959 -12.37942,-6.3406 -0.69061,0.17427 5.86491,-15.10076 4.365,-14.87688 1.03863,-0.52191 5.70681,1.23243 10.51391,1.62489 5.02449,0.8158 5.83522,0.39603 8.16935,0.37106 z" id="path3052" inkscape:connector-curvature="0" sodipodi:nodetypes="ccccccc"/>
    <path style="fill:#ffffff;stroke:#000000;stroke-width:0.98329931px;stroke-linecap:butt;stroke-linejoin:miter;stroke-opacity:1" d="m 273.13752,809.67569 c 3.13722,-0.32038 10.41288,0.81243 15.08687,3.62085 0.57442,0.0486 -3.47822,14.18992 -4.22432,14.4834 -0.62449,0.63345 -5.2143,0.84358 -6.93997,0.30174 -3.35165,-1.04883 -7.80891,-4.74757 -7.24169,-5.12954 3.15794,-5.18027 2.42889,-13.47086 3.31911,-13.27645 z" id="path3054" inkscape:connector-curvature="0" sodipodi:nodetypes="cccccc"/>
    <path style="fill:#ffffff;stroke:#000000;stroke-width:0.98329931px;stroke-linecap:butt;stroke-linejoin:miter;stroke-opacity:1" d="m 268.61146,808.77047 c -1.60145,-1.7883 -3.16183,-2.68526 -6.63823,-2.71563 -1.31378,-0.0791 -6.94216,3.91142 -6.33649,6.93997 0.63877,2.97843 1.15384,6.02283 4.52606,7.54343 1.68288,0.34125 2.12374,0.95852 6.93997,0.60348 1.91474,-1.51079 2.24788,-3.25877 2.41389,-6.03476 -0.15359,-2.87921 0.22389,-3.43419 -0.9052,-6.33649 z" id="path3056" inkscape:connector-curvature="0" sodipodi:nodetypes="ccccccc"/>
    <path style="fill:#ffffff;stroke:#000000;stroke-width:0.98329931px;stroke-linecap:butt;stroke-linejoin:miter;stroke-opacity:1" d="m 442.11051,810.88264 c 2.82937,4.58796 3.37391,6.24944 3.86349,8.51898 0.74103,2.79215 0.31496,10.82519 0.96431,9.88701 5.0318,-1.0485 7.28188,-1.88144 10.14795,-3.14889 2.86818,-1.31222 7.89793,-3.18369 8.08781,-4.32422 0.85767,-0.74618 -2.14871,-13.74529 -2.8176,-14.02975 -3.68253,-0.3789 -6.67448,0.0607 -9.75549,1.02549 -2.53668,0.78406 -11.02275,1.29898 -10.49047,2.07138 z" id="path3058" inkscape:connector-curvature="0" sodipodi:nodetypes="cccccccc"/>
    <path style="fill:#ffffff;stroke:#000000;stroke-width:0.98329931px;stroke-linecap:butt;stroke-linejoin:miter;stroke-opacity:1" d="m 466.85298,806.35658 c -0.26511,2.7636 0.12939,5.0325 0.60348,7.2417 0.33601,1.12656 0.22078,5.02551 5.47205,5.07959 1.1818,0.15287 1.70799,-1.17351 2.37313,-3.26917 -0.0394,-0.42157 0.80002,-4.88562 -0.90522,-9.35386 -0.44709,-1.9525 -7.24411,-0.70569 -7.54344,0.30174 z" id="path3060" inkscape:connector-curvature="0" sodipodi:nodetypes="cccccc"/>
    <g transform="matrix(0.71982078,0,0,1.385318,1117.3617,405.25619)" style="font-size:143.48060608px;font-style:normal;font-variant:normal;font-weight:bold;font-stretch:normal;line-height:125%;letter-spacing:0px;word-spacing:0px;fill:#296253;fill-opacity:1;stroke:none;font-family:Georgia;-inkscape-font-specification:Sans Bold" id="text3062">
      <path d="m -1317.3064,113.37307 0,-1.76635 c -0.2096,-6.55509 0.538,-14.207472 -5.6268,-15.59154 -9.0246,-2.922576 -18.5636,0.789222 -23.5915,3.828122 -3.5284,2.519938 -5.3988,5.208328 -5.611,11.763418 l 0,8.38484 c 1.052,6.55519 2.3408,8.45404 5.611,10.97388 5.5667,4.08049 15.7647,7.29567 23.5915,5.14541 5.5519,-1.59326 5.4172,-9.56408 5.6268,-16.11927 l 0,-2.41227 -11.8083,0 0,2.30415 c 0,2.52285 -0.3432,3.03749 -1.0217,3.9103 -1.5471,1.73273 -5.0169,1.33104 -6.1139,0 -0.6917,-0.87282 -1.0375,-2.57065 -1.0374,-5.09349 l 0,-5.80222 c -10e-5,-2.52274 0.3457,-4.22057 1.0374,-5.09349 1.6031,-1.71217 5.0216,-1.35185 6.1139,0 0.6785,0.87291 1.019,1.17243 1.0217,3.69518 l 0,1.87335 z" style="fill:#296253;font-family:Helvetica LT Std UltCompressed;-inkscape-font-specification:Helvetica LT Std UltCompressed Bold" id="path3067" inkscape:connector-curvature="0" sodipodi:nodetypes="cccccccccccsccccccccc"/>
      <path d="m -1292.6491,146.40791 0,-24.16623 8.4652,0 0,25.70995 15.2088,2.57406 0,-70.351286 -15.2088,3.202092 0,25.521664 -8.4652,0 0,-23.617718 -15.2088,3.548264 0,53.914824 z" style="fill:#296253;font-family:Helvetica LT Std UltCompressed;-inkscape-font-specification:Helvetica LT Std UltCompressed Bold" id="path3069" inkscape:connector-curvature="0" sodipodi:nodetypes="ccccccccccccc"/>
      <path d="m -1247.9549,137.78781 5.7794,-26.58536 0.9041,0 5.5051,27.80297 z m -14.238,13.54146 12.398,2.11897 1.275,-6.20103 13.3185,1.21761 0.6456,6.99505 13.8184,1.99629 -10.4608,-82.997699 -20.5339,2.986934 z" style="fill:#296253;font-family:Helvetica LT Std UltCompressed;-inkscape-font-specification:Helvetica LT Std UltCompressed Bold" id="path3071" inkscape:connector-curvature="0" sodipodi:nodetypes="cccccccccccccc"/>
      <path d="m -1219.7524,73.215037 0,17.026101 8.1914,0 0,68.625352 17.9141,1.16749 0,-69.792842 8.0733,0 -0.8047,-20.737634 z" style="fill:#296253;font-family:Helvetica LT Std UltCompressed;-inkscape-font-specification:Helvetica LT Std UltCompressed Bold" id="path3073" inkscape:connector-curvature="0" sodipodi:nodetypes="ccccccccc"/>
      <path d="m -1097.6849,166.0797 0,-20.09389 -20.3044,0 0,-17.82547 19.2276,0 0,-23.98831 -19.2276,0 0,-17.818671 19.9967,0 0,-21.825256 -36.3017,1.687589 0,98.508428 z" style="fill:#296253;font-family:Helvetica LT Std UltCompressed;-inkscape-font-specification:Helvetica LT Std UltCompressed Bold" id="path3077" inkscape:connector-curvature="0" sodipodi:nodetypes="ccccccccccccc"/>
      <path d="m -1071.6468,166.19539 0,-37.46119 c 3.4644,-0.16604 5.8976,0.41983 7.2995,1.75763 1.4019,1.33791 3.9206,3.55457 3.8699,6.65002 -0.084,6.16384 -0.096,2.37799 -0.036,9.3934 0.06,7.01545 0.058,8.61952 0.058,19.66014 l 15.2087,0 c 0,-11.75608 0.1244,-14.25737 0.032,-21.39966 -0.093,-7.14225 -0.302,-14.16674 -0.6277,-21.07349 -0.4335,-4.59337 -2.6061,-7.76435 -5.4607,-9.51298 -2.8547,-1.74851 -6.0411,-2.78135 -9.5593,-3.0985 l 0,-0.28993 c 6.2772,-0.80023 10.4022,-2.6062 12.3751,-5.41786 1.9727,-2.81155 1.5549,-6.175815 1.3756,-10.092806 l 0,-14.640916 c -0.057,-6.571407 -1.8085,-10.34971 -5.2549,-13.0074 -3.4465,-2.65749 -8.2471,-3.937965 -14.4017,-3.841426 l -20.087,0 0,102.374968 z m 0,-82.58927 3.587,0 c 1.7456,-0.03313 3.1326,0.32323 4.1609,1.069076 1.0282,0.746026 1.5543,2.080861 1.5783,4.004509 l 0,6.089598 c 0.063,1.926817 -0.3498,3.509287 -1.2376,4.747427 -0.8878,1.23826 -2.6274,1.87849 -5.219,1.92071 l -2.8696,0 z" style="fill:#296253;font-family:Helvetica LT Std UltCompressed;-inkscape-font-specification:Helvetica LT Std UltCompressed Bold" id="path3079" inkscape:connector-curvature="0" sodipodi:nodetypes="ccccscccccccccccccccccccccccc"/>
      <path d="m -1019.6416,83.715263 3.4435,0 c 1.922,-0.05098 3.3149,0.48379 4.1788,1.604317 0.8638,1.120704 1.2883,3.133607 1.2734,6.038715 l 0,1.794473 c 0.015,2.905259 -0.4096,4.918159 -1.2734,6.038719 -0.8639,1.120683 -2.2568,1.655443 -4.1788,1.604313 l -3.4435,0 z m -15.2088,82.025347 21.3784,0 c 6.3519,-0.1352 11.009,-2.20819 13.97125,-6.21898 2.96219,-4.01078 4.42687,-9.1482 4.39404,-15.41225 l 0,-16.29553 c -0.003,-5.59702 -1.21663,-9.47262 -3.64078,-11.62677 -2.42421,-2.15407 -6.04111,-3.61417 -10.85061,-4.38033 l 0,-0.28841 c 4.4059,-0.89524 7.8256,-2.31328 10.25876,-4.25414 2.43312,-1.94075 3.70052,-5.08929 3.80219,-9.445637 l 0,-16.295522 c 0.0209,-5.563942 -1.41988,-8.755999 -4.3223,-12.084898 -2.90255,-3.328706 -7.39225,-5.035166 -13.46915,-5.119388 l -21.5218,0 z m 15.2088,-37.4771 3.013,0 c 2.1462,-0.0601 3.7364,0.49275 4.7707,1.65839 1.0342,1.16572 1.5483,3.30482 1.5424,6.41726 l 0,0.87808 c 0.01,3.11251 -0.5082,5.25159 -1.5424,6.41726 -1.0343,1.16569 -2.6245,1.71849 -4.7707,1.65839 l -3.013,0 z" style="fill:#296253;font-family:Helvetica LT Std UltCompressed;-inkscape-font-specification:Helvetica LT Std UltCompressed Bold" id="path3081" inkscape:connector-curvature="0" sodipodi:nodetypes="cccccscccccsccccccccccccccccccccc"/>
      <path d="m -966.82997,92.332916 c 0,-2.344194 0.39454,-3.921857 1.1837,-4.732994 0.78911,-0.810968 1.97281,-1.188718 3.55109,-1.13325 1.50949,-0.05546 2.65135,0.322285 3.42556,1.13325 0.77416,0.811134 1.16275,2.388797 1.16576,4.732994 l 0,42.907954 c -0.003,2.34429 -0.3916,3.92196 -1.16576,4.73298 -0.77422,0.81106 -1.91607,1.18882 -3.42556,1.13327 -1.57828,0.0556 -2.76198,-0.32221 -3.5511,-1.13327 -0.78915,-0.81103 -1.18369,-2.3887 -1.18369,-4.73298 z m -15.20875,56.164714 c 0.24211,6.09123 2.37636,10.30759 6.40274,12.64908 4.02636,2.34149 8.49213,3.45808 13.39733,3.34977 4.9739,0.10831 9.48152,-1.00828 13.52287,-3.34977 4.04127,-2.34149 6.1815,-6.55785 6.42067,-12.64908 l 0,-66.67047 c -0.23917,-6.091142 -2.37939,-10.307501 -6.42067,-12.649089 -4.04135,-2.341402 -8.54897,-3.457986 -13.52287,-3.349758 -4.90521,-0.108228 -9.37098,1.008357 -13.39734,3.34976 -4.02638,2.341589 -6.16062,6.557948 -6.40273,12.649087 z" style="fill:#296253;font-family:Helvetica LT Std UltCompressed;-inkscape-font-specification:Helvetica LT Std UltCompressed Bold" id="path3083" inkscape:connector-curvature="0" sodipodi:nodetypes="sccccccccsscscsccccccc"/>
      <path d="m -921.77253,161.4016 c 1.78749,-6.72768 3.6288,-12.17205 5.52393,-18.93243 1.8951,-6.76034 3.01901,-13.56973 3.37176,-20.4282 0.0926,0.24246 0.44535,2.33975 1.05815,6.2919 0.61275,3.95219 1.36003,7.91254 2.24186,11.88102 l 5.45219,20.05746 15.63918,-1.86479 -12.62613,-46.30186 12.33918,-39.79379 -14.2044,-1.413364 -2.43914,7.798157 c -1.39895,4.570549 -2.65439,8.737259 -3.76632,13.405707 -1.11199,4.66859 -1.86525,9.41882 -2.25979,14.25071 l -0.43043,0 c -0.68454,-6.20466 -1.68291,-12.360355 -2.99512,-18.467093 -1.31226,-6.106589 -2.70519,-11.690499 -4.17882,-17.764565 l -15.78267,-1.65351 11.62178,47.167738 -12.76961,47.30672 z" style="fill:#296253;font-family:Helvetica LT Std UltCompressed;-inkscape-font-specification:Helvetica LT Std UltCompressed Bold" id="path3085" inkscape:connector-curvature="0" sodipodi:nodetypes="cscscccccccsccsccccc"/>
      <path d="m -881.88941,123.72081 36.25161,0 0,-15.77019 -36.25161,0 z" style="fill:#296253;font-family:Helvetica LT Std UltCompressed;-inkscape-font-specification:Helvetica LT Std UltCompressed Bold" id="path3088" inkscape:connector-curvature="0"/>
      <path d="m -824.01365,150.26937 0,-26.87088 18.2218,0 0,-14.84288 -18.2218,0 0,-12.739783 18.9392,1.646719 0,-12.521785 -34.14795,-5.901537 0,72.510926 z" style="fill:#296253;font-family:Helvetica LT Std UltCompressed;-inkscape-font-specification:Helvetica LT Std UltCompressed Bold" id="path3090" inkscape:connector-curvature="0" sodipodi:nodetypes="ccccccccccc"/>
      <path d="m -764.90403,136.0594 1.09803,-5.88564 c 0.17313,-1.07976 0.45545,-2.98781 0.84694,-5.72417 0.39142,-2.7363 0.79597,-5.53527 1.21366,-8.39692 0.41761,-2.86158 0.75231,-5.0202 1.00411,-6.47588 l 0.47149,0 c -0.1744,3.3577 -0.29718,6.5838 -0.36835,9.67832 -0.0712,3.09459 -0.10564,6.20793 -0.10314,9.34005 l 0,6.23346 10.96221,-4.36799 0,-30.721461 -21.11672,-6.407313 -0.80771,8.564674 c -0.33646,2.21915 -0.57711,4.82822 -0.72196,7.82723 -0.14492,2.99904 -0.29718,5.92759 -0.45677,8.78565 l -0.58936,0 c -0.0909,-3.44847 -0.3512,-6.66204 -0.78092,-9.64073 -0.42977,-2.97864 -0.83742,-5.32775 -1.22293,-7.04732 l -1.39706,-10.126925 -21.11673,-5.245801 0,58.323496 11.61487,-2.84395 -0.65266,-26.65031 c -0.0123,-1.64748 -0.0762,-3.38894 -0.19154,-5.22441 -0.11544,-1.83539 -0.20876,-3.57687 -0.27995,-5.22442 l 0.47149,0 c 0.42482,2.40866 0.90123,5.2777 1.42921,8.60713 0.52796,3.3295 1.03383,6.42405 1.51762,9.28366 l 3.17387,17.70675 z" style="fill:#296253;font-family:Helvetica LT Std UltCompressed;-inkscape-font-specification:Helvetica LT Std UltCompressed Bold" id="path3092" inkscape:connector-curvature="0" sodipodi:nodetypes="ccccccscccccccccscccccccccsccc"/>
      <path sodipodi:nodetypes="ccccccccc" inkscape:connector-curvature="0" id="path3033" style="fill:#296253;font-family:Helvetica LT Std UltCompressed;-inkscape-font-specification:Helvetica LT Std UltCompressed Bold" d="m -1178.3692,69.49734 0,18.577418 8.1914,0 0,74.731972 17.9141,1.16749 0,-75.899462 8.0733,0 0,-21.430818 z"/>
    </g>
  </g>
  <g inkscape:groupmode="layer" id="layer3" inkscape:label="Warstwa#1" transform="translate(-115.67439,-474.17913)">
    <path style="fill:#ffffff;stroke:#000000;stroke-width:13.25487423;stroke-linecap:butt;stroke-linejoin:miter;stroke-miterlimit:4;stroke-opacity:1;stroke-dasharray:none" d="m 179.19511,623.49683 c 0,0 -5.25357,55.87744 57.26373,118.39474 0,0 -15.53066,-43.22379 0.84965,-104.35598" id="path3780" inkscape:connector-curvature="0" sodipodi:nodetypes="ccc"/>
    <path style="fill:#ffffff;stroke:#000000;stroke-width:0.98329931px;stroke-linecap:butt;stroke-linejoin:miter;stroke-opacity:1" d="m 296.66572,762.50933 c 9.08553,-5.99465 16.25131,-3.31292 18.96696,-3.84865 5.48859,0.21708 35.7595,-8.2971 41.57635,2.01132 1.25025,0.54786 3.25754,-11.98913 37.15733,-2.98879 3.29405,-0.23742 29.20204,-2.45781 34.28703,8.60018 1.40718,1.11376 3.97122,-14.19118 12.59409,-2.91511 2.69975,3.97065 3.8589,8.45483 4.47841,13.1189 0.51728,1.21333 -14.50522,5.17755 -26.74483,6.82846 -25.41813,7.98565 -27.16103,-3.6547 -26.97244,-2.50377 -2.24546,5.11807 -10.83409,5.63737 -19.11972,7.04149 -7.12196,-0.39312 -10.2008,0.89277 -18.43686,-4.99295 -4.69562,6.35185 -11.14005,4.74516 -17.1196,5.10676 -12.16676,1.18804 -16.68828,-5.82159 -17.50483,-5.08751 -9.80054,1.79273 -17.13365,-0.48052 -22.62088,-1.72637 -1.62509,0.61634 -1.89832,-17.56755 -0.54101,-18.64396 z" id="path3019" inkscape:connector-curvature="0" sodipodi:nodetypes="ccccccccccccccc"/>
  </g>
</svg>