<?xml version="1.0" encoding="UTF-8" standalone="no"?>
<!-- Created with Inkscape (http://www.inkscape.org/) -->
<svg xmlns:dc="http://purl.org/dc/elements/1.1/" xmlns:cc="http://creativecommons.org/ns#" xmlns:rdf="http://www.w3.org/1999/02/22-rdf-syntax-ns#" xmlns:svg="http://www.w3.org/2000/svg" xmlns="http://www.w3.org/2000/svg" xmlns:sodipodi="http://sodipodi.sourceforge.net/DTD/sodipodi-0.dtd" xmlns:inkscape="http://www.inkscape.org/namespaces/inkscape" width="500" height="429.4769" id="svg3006" version="1.1" inkscape:version="0.48.1 " sodipodi:docname="msxfm.svg">
  <defs id="defs3008"/>
  <sodipodi:namedview id="base" pagecolor="#ffffff" bordercolor="#666666" borderopacity="1.0" inkscape:pageopacity="0.0" inkscape:pageshadow="2" inkscape:zoom="3.0790089" inkscape:cx="375.40888" inkscape:cy="284.73928" inkscape:document-units="px" inkscape:current-layer="layer1" showgrid="false" fit-margin-top="0" fit-margin-left="0" fit-margin-right="0" fit-margin-bottom="0" inkscape:window-width="1360" inkscape:window-height="708" inkscape:window-x="-4" inkscape:window-y="-4" inkscape:window-maximized="1"/>
  <metadata id="metadata3011">
    <rdf:RDF>
      <cc:Work rdf:about="">
        <dc:format>image/svg+xml</dc:format>
        <dc:type rdf:resource="http://purl.org/dc/dcmitype/StillImage"/>
        <dc:title/>
      </cc:Work>
    </rdf:RDF>
  </metadata>
  <g inkscape:label="Layer 1" inkscape:groupmode="layer" id="layer1" transform="translate(-305.69,-274.16616)">
    <path style="fill:#222222;fill-opacity:1;stroke:none" d="m 417.11336,465.96468 -50.93413,-6.45645 21.52144,-164.28051 c 2.96657,-17.39174 12.97267,-26.59078 40.70368,-17.49783 l 176.66313,65.56243 c 24.07779,7.69324 24.60845,28.99206 25.10836,39.45603 l 2.86953,111.19423 -23.67362,-1.43477 -4.30427,-106.88993 c -0.22734,-5.92721 -0.45192,-11.85657 -7.17384,-12.9129 l -55.95579,-19.3693 -1.74668,129.72135 -35.5572,-3.99236 3.58692,-136.48973 -60.97748,-22.23884 c -15.6997,-5.2087 -16.68948,4.40559 -17.93456,14.34764 z" id="path3025" inkscape:connector-curvature="0" sodipodi:nodetypes="ccccccccccccccccc"/>
    <path style="fill:#222222;fill-opacity:1;stroke:none" d="m 773.87417,426.97529 -9.98124,9.98127 -12.78848,-12.47656 11.5408,-14.65998 -15.9076,-18.71484 7.79786,-8.42168 14.65995,16.84336 8.7336,-9.66933 9.0455,12.47657 -8.42168,10.91698 15.90763,19.96251 -6.55021,8.73359 z" id="path3027" inkscape:connector-curvature="0" sodipodi:nodetypes="ccccccccccccc"/>
    <path style="fill:#222222;fill-opacity:1;stroke:none" d="m 740.49936,392.66477 0.62385,23.08163 -58.95178,-20.27442 c -12.10245,-4.34562 -15.72423,-0.72524 -16.83381,6.55021 -0.19282,3.72419 1.38106,14.22184 12.95758,16.32161 l 48.79185,16.11744 c 11.6514,3.24607 19.93666,9.24625 22.45781,19.96251 l 3.11915,43.35606 c -0.59922,6.73105 -3.41973,11.70036 -13.10039,11.22889 l -84.84062,-12.47656 -1.55958,-29.63185 72.9879,13.10039 c 6.00656,1.20011 11.14511,0.66417 11.85274,-8.73359 -0.41133,-5.02088 0.45474,-10.48222 -8.7336,-12.47654 l -61.13515,-14.97189 c -11.93273,-6.0294 -19.97239,-13.8908 -21.21017,-24.95311 l -2.18338,-46.78712 c -0.14055,-4.25093 5.37306,-11.73257 15.59569,-8.42168 z" id="path3029" inkscape:connector-curvature="0" sodipodi:nodetypes="ccccccccccccccccccc"/>
    <path style="fill:#263754;fill-opacity:1;stroke:none" d="m 305.69,685.24014 0,18.40293 500,-21.83399 0,-9.0455 z" id="path3031" inkscape:connector-curvature="0" sodipodi:nodetypes="ccccc"/>
    <path style="fill:#263754;fill-opacity:1;stroke:none" d="m 305.69115,655.29639 0,21.52207 198.06543,-4.99062 0,-114.16055 c 0.51959,-6.36136 2.0068,-11.93107 11.54083,-10.91698 l 54.27304,4.05489 0,119.46308 39.92502,0 0,-116.34396 37.74159,2.80724 c 14.96026,2.70039 13.43596,10.5522 15.90762,17.15527 l 2.4953,94.50995 140.05002,0 0,-10.60507 -106.36329,1.24765 -2.18339,-97.94101 c 0.19632,-7.86205 -5.43885,-33.09474 -26.51272,-34.31055 L 489.09663,508.07296 c -21.60696,0.4071 -24.55479,12.15603 -25.26505,25.26505 l -9.66933,123.82988 z" id="path3033" inkscape:connector-curvature="0" sodipodi:nodetypes="ccccccccccccccccccccc"/>
    <path style="fill:#263754;fill-opacity:1;stroke:none" d="m 305.69115,630.03137 0,19.96249 70.18067,0.93573 c 14.65485,-3.37711 20.95374,-15.70705 24.01739,-31.50331 l 11.54081,-122.58223 c 0.94389,-3.07904 1.97456,-6.10025 7.79785,-5.92636 l 386.46153,44.60371 0,-13.41231 -411.41466,-46.78712 c -30.20035,-2.83194 -33.70901,23.79485 -34.31053,28.3842 l -11.85274,109.16992 c -2.51773,14.21525 -8.73989,17.93454 -16.21954,18.09102 z" id="path3035" inkscape:connector-curvature="0" sodipodi:nodetypes="ccccccccccccc"/>
    <path style="fill:#263754;fill-opacity:1;stroke:none" d="m 416.10873,553.92432 35.55822,4.05489 -3.74297,36.40258 -34.93438,-3.43106 z" id="path3037" inkscape:connector-curvature="0" sodipodi:nodetypes="ccccc"/>
  </g>
</svg>